<?xml version="1.0" encoding="iso-8859-1"?>
<!-- Generator: Adobe Illustrator 19.0.0, SVG Export Plug-In . SVG Version: 6.00 Build 0)  -->
<svg version="1.1" id="Layer_1" xmlns="http://www.w3.org/2000/svg" xmlns:xlink="http://www.w3.org/1999/xlink" x="0px" y="0px"
	 viewBox="0 0 512 512" style="enable-background:new 0 0 512 512;" xml:space="preserve">
<path style="fill:#D26CBA;" d="M444.082,20.898c-25.929,0-47.02,21.092-47.02,47.02s21.092,47.02,47.02,47.02
	c25.929,0,47.02-21.092,47.02-47.02S470.01,20.898,444.082,20.898z"/>
<g>
	<path style="fill:#314E55;" d="M470.204,146.286c-5.77,0-10.449,4.674-10.449,10.449v264.388c0,38.592-31.357,69.98-69.898,69.98
		H90.796c-38.541,0-69.898-31.357-69.898-69.898V122.143c0-38.541,31.393-69.898,69.985-69.898h264.383
		c5.77,0,10.449-4.674,10.449-10.449s-4.679-10.449-10.449-10.449H90.883C40.77,31.347,0,72.082,0,122.143v299.061
		C0,471.265,40.73,512,90.796,512h299.061c50.066,0,90.796-40.765,90.796-90.878V156.735
		C480.653,150.959,475.975,146.286,470.204,146.286z"/>
	<path style="fill:#314E55;" d="M444.082,0c-37.449,0-67.918,30.469-67.918,67.918s30.469,67.918,67.918,67.918
		S512,105.367,512,67.918S481.531,0,444.082,0z M444.082,114.939c-25.929,0-47.02-21.092-47.02-47.02s21.092-47.02,47.02-47.02
		c25.929,0,47.02,21.092,47.02,47.02S470.01,114.939,444.082,114.939z"/>
</g>
<g>
</g>
<g>
</g>
<g>
</g>
<g>
</g>
<g>
</g>
<g>
</g>
<g>
</g>
<g>
</g>
<g>
</g>
<g>
</g>
<g>
</g>
<g>
</g>
<g>
</g>
<g>
</g>
<g>
</g>
</svg>
